<svg width="16" height="14" viewBox="0 0 16 14" fill="none" xmlns="http://www.w3.org/2000/svg">
<path d="M3.71205 1.74977C3.71185 2.1476 3.55363 2.52905 3.27218 2.81021C2.99074 3.09138 2.60913 3.24922 2.2113 3.24902C1.81348 3.24882 1.43202 3.0906 1.15086 2.80915C0.869697 2.52771 0.711853 2.1461 0.712052 1.74827C0.71225 1.35045 0.870476 0.968997 1.15192 0.687833C1.43337 0.406669 1.81498 0.248825 2.2128 0.249024C2.61063 0.249223 2.99208 0.407449 3.27324 0.688894C3.55441 0.970339 3.71225 1.35195 3.71205 1.74977ZM3.75705 4.35977H0.757052V13.7498H3.75705V4.35977ZM8.49705 4.35977H5.51205V13.7498H8.46705V8.82227C8.46705 6.07727 12.0446 5.82227 12.0446 8.82227V13.7498H15.0071V7.80227C15.0071 3.17477 9.71205 3.34727 8.46705 5.61977L8.49705 4.35977Z" fill="#75757F"/>
</svg>
