<svg width="15" height="12" viewBox="0 0 15 12" fill="none" xmlns="http://www.w3.org/2000/svg">
<path d="M12.866 1.90097C13.4944 1.49332 13.9105 0.936922 14.1143 0.2293C13.503 0.572016 12.894 0.807068 12.2858 0.936922C11.7391 0.315595 11.0469 0 10.2171 0C9.40589 0 8.7207 0.300801 8.16151 0.885967C7.60543 1.47524 7.32467 2.19108 7.32467 3.02692C7.32467 3.28087 7.355 3.50771 7.41567 3.70002C5.02335 3.61373 3.04324 2.56503 1.48311 0.546538C1.21868 1.04048 1.08646 1.54346 1.08646 2.06369C1.08646 3.13294 1.51344 3.98027 2.36584 4.60242C1.87975 4.55887 1.45122 4.42901 1.08646 4.21615C1.08646 4.97966 1.29878 5.61742 1.7242 6.17875C2.15118 6.73433 2.69948 7.08856 3.36911 7.23978C3.12646 7.30553 2.87058 7.33676 2.60771 7.33676C2.36506 7.33676 2.19318 7.31539 2.09129 7.26854C2.27017 7.89069 2.60771 8.39531 3.09535 8.78159C3.58143 9.16951 4.14063 9.37415 4.76903 9.39223C3.73309 10.2511 2.5486 10.676 1.20857 10.676C0.880362 10.676 0.64782 10.671 0.50705 10.6447C1.82687 11.5504 3.29601 12 4.92147 12C6.58505 12 8.05496 11.5546 9.33434 10.6637C10.6137 9.77769 11.5579 8.68461 12.1645 7.39757C12.7743 6.11218 13.076 4.77419 13.076 3.37703V2.9924C13.6655 2.52394 14.1423 1.9963 14.507 1.4136C13.9782 1.65441 13.4314 1.81796 12.866 1.90097Z" fill="#75757F"/>
</svg>
