<svg width="17" height="12" viewBox="0 0 17 12" fill="none" xmlns="http://www.w3.org/2000/svg">
<path d="M16.1727 1.87759C15.9887 1.13853 15.4465 0.556469 14.7581 0.358938C13.5104 0 8.50705 0 8.50705 0C8.50705 0 3.50374 0 2.25595 0.358938C1.56757 0.5565 1.0254 1.13853 0.841385 1.87759C0.50705 3.21719 0.50705 6.01213 0.50705 6.01213C0.50705 6.01213 0.50705 8.80706 0.841385 10.1467C1.0254 10.8857 1.56757 11.4435 2.25595 11.6411C3.50374 12 8.50705 12 8.50705 12C8.50705 12 13.5104 12 14.7581 11.6411C15.4465 11.4435 15.9887 10.8857 16.1727 10.1467C16.507 8.80706 16.507 6.01213 16.507 6.01213C16.507 6.01213 16.507 3.21719 16.1727 1.87759V1.87759ZM6.87067 8.54972V3.47453L11.0525 6.01219L6.87067 8.54972V8.54972Z" fill="#75757F"/>
</svg>
