<svg width="17" height="16" viewBox="0 0 17 16" fill="none" xmlns="http://www.w3.org/2000/svg">
<path fill-rule="evenodd" clip-rule="evenodd" d="M5.30705 0H11.707C14.358 0 16.507 2.14903 16.507 4.8V11.2C16.507 13.851 14.358 16 11.707 16H5.30705C2.65608 16 0.50705 13.851 0.50705 11.2V4.8C0.50705 2.14903 2.65608 0 5.30705 0ZM5.30705 1.6C3.53974 1.6 2.10705 3.03269 2.10705 4.8V11.2C2.10705 12.9673 3.53974 14.4 5.30705 14.4H11.707C13.4744 14.4 14.9071 12.9673 14.9071 11.2V4.8C14.9071 3.03269 13.4744 1.6 11.707 1.6H5.30705ZM8.50705 12C6.29791 12 4.50705 10.2091 4.50705 8C4.50705 5.79086 6.29791 4 8.50705 4C10.7162 4 12.507 5.79086 12.507 8C12.507 10.2091 10.7162 12 8.50705 12ZM8.50705 10.4C9.83253 10.4 10.9071 9.32548 10.9071 8C10.9071 6.67452 9.83253 5.6 8.50705 5.6C7.18157 5.6 6.10705 6.67452 6.10705 8C6.10705 9.32548 7.18157 10.4 8.50705 10.4ZM12.507 4.8C12.0652 4.8 11.707 4.44183 11.707 4C11.707 3.55817 12.0652 3.2 12.507 3.2C12.9489 3.2 13.307 3.55817 13.307 4C13.307 4.44183 12.9489 4.8 12.507 4.8Z" fill="#75757F"/>
</svg>
